<svg version="1.2" xmlns="http://www.w3.org/2000/svg" viewBox="0 0 597 115" width="600" height="116">
	<style>
		.s0 { fill: #9e2335 } 
		.s1 { fill: #57585a } 
	</style>
	<g id="Layer 1">
		<g id="&lt;Group&gt;">
			<path id="&lt;Compound Path&gt;" class="s0" d="m35.91 100.27c-0.93-4.39-0.54-8.97 1.17-13.17l-23.66-23.64c-3.29-3.3-3.17-8.76 0.12-12.05 3.29-3.29 8.8-3.29 12.08 0l6.07 6.07-9.1 9.09 7.21 7.22 25.49-25.5-7.2-7.2-9.09 9.08-6.01-5.99-0.03-0.04c-7.33-7.34-19.23-7.34-26.56 0-7.33 7.33-7.38 19.25-0.04 26.58 0 0 29.56 29.57 29.55 29.55zm64.74-20.89c-4.38 0.93-8.96 0.54-13.17-1.16l-23.64 23.65c-3.29 3.28-8.75 3.17-12.04-0.12-3.29-3.29-3.29-8.8 0-12.09l6.07-6.06 9.09 9.1 7.22-7.22-25.5-25.48-7.21 7.2 9.09 9.09-5.99 6-0.04 0.03c-7.34 7.34-7.34 19.23 0 26.57 7.33 7.33 19.24 7.37 26.58 0.03 0 0 29.57-29.56 29.54-29.54zm-20.91-64.72c0.94 4.38 0.55 8.98-1.16 13.16l23.65 23.66c3.29 3.29 3.17 8.75-0.12 12.02-3.29 3.31-8.8 3.3-12.08 0l-6.07-6.06 9.1-9.1-7.21-7.19-25.5 25.48 7.22 7.22 9.09-9.1 6 6 0.03 0.03c7.34 7.35 19.23 7.35 26.56 0 7.33-7.32 7.37-19.24 0.05-26.58 0 0-29.57-29.56-29.56-29.54zm-64.76 20.87c4.39-0.94 8.98-0.54 13.16 1.16l23.66-23.65c3.28-3.29 8.75-3.17 12.04 0.12 3.28 3.29 3.28 8.79 0 12.08l-6.07 6.07-9.09-9.1-7.21 7.21 25.49 25.49 7.21-7.2-9.1-9.09 6-6 0.05-0.04c7.32-7.34 7.32-19.22 0-26.56-7.35-7.34-19.26-7.38-26.59-0.03 0 0-29.57 29.55-29.55 29.54z"/>
			<g id="&lt;Group&gt;">
				<g id="&lt;Group&gt;">
					<path id="&lt;Compound Path&gt;" fill-rule="evenodd" class="s1" d="m147.35 94.72l2.03 1.68q0.55 0.32 0.55 0.63 0 0.29-0.41 0.48l-0.93 0.41v6.78l0.34 2.8q-0.01 0.47-0.47 0.76c-0.25 0.22-0.62 0.3-1.11 0.34q-1.32 0.01-1.32-0.72v-1.21h-12.32v0.96q0.01 0.56-0.52 0.79c-0.34 0.18-0.71 0.27-1.18 0.29q-0.74 0-0.85-0.83l0.13-3.18v-7.55c0-1.17-0.06-1.92-0.24-2.3l2.66 1.35h12.07zm-13.63 11.06h12.32v-3.88h-12.32zm0-4.73h12.32v-4.02h-12.32zm13.41-21.2l2.3 1.69c0.16 0.1 0.23 0.31 0.27 0.66 0 0.22-0.14 0.31-0.39 0.34l-1.09-0.12q-3.22 0.46-7.2 0.86v3.15h8.91l1.94-2.05 2.61 1.87c0.29 0.22 0.41 0.43 0.44 0.68 0 0.32-0.18 0.48-0.62 0.51h-11.96q1.57 1.3 3.24 2.24 1.96 1.13 4.12 1.87c1.55 0.56 3.38 1.03 5.57 1.47l-0.21 0.74q-0.67 0-1.13 0.1-0.46 0.16-1.35 1.83c-1.4-0.46-2.88-1.18-4.54-2.18-1.57-0.9-3-2.01-4.37-3.33q-1.12-0.98-2.56-2.74h-0.09v6.58q0 0.55-0.56 0.93-0.56 0.28-1.12 0.28-0.91 0.01-1-0.88l0.24-3.27v-2.43q-1.1 1.65-2.36 2.62c-1.44 1.19-3.21 2.34-5.36 3.52q-2.47 1.26-5.43 2.24l-0.35-0.59c1.82-0.87 3.42-1.78 4.82-2.78 1.49-0.99 2.79-2.03 3.96-3.14q1.54-1.49 2.61-3.08h-7.02q-1.66-0.01-3.39 0.22l-0.63-1.56c1.38 0.21 2.71 0.3 4.02 0.33h9.13v-2.93c-2.3 0.19-5.6 0.35-9.97 0.5l-0.37-0.59q6.36-0.6 9.91-1.21 5.14-0.84 8.98-2.35z"/>
					<path id="&lt;Compound Path&gt;" fill-rule="evenodd" class="s1" d="m172.51 80.35l2.89 0.42q0.8 0.08 0.83 0.57 0.01 0.57-1.25 0.98v2.73h4.63v-2.73q0-0.42-0.13-1.85l2.89 0.42q0.8 0.11 0.83 0.57-0.01 0.58-1.23 0.98v2.61h1.61l1.72-1.97 2.48 1.82q0.37 0.33 0.38 0.67 0.01 0.46-0.61 0.49h-5.58v4.97h3.19l1.88-2.13 2.58 1.9q0.37 0.34 0.41 0.71c0 0.25-0.19 0.38-0.63 0.38h-8.3c0.7 0.64 1.42 1.18 2.26 1.69q1.34 0.85 2.86 1.42c1.08 0.45 2.38 0.8 3.95 1.12l-0.26 0.73q-0.61 0-1.08 0.12c-0.33 0.1-0.74 0.67-1.28 1.76-0.92-0.39-1.9-0.97-3.03-1.78-1.01-0.76-1.93-1.66-2.83-2.74q-0.75-0.81-1.7-2.32h-4.35c-0.67 1.34-1.38 2.45-2.18 3.37q-0.03 0.08-0.12 0.16l0.57 0.32h6.08l1.34-1.24 1.87 1.53q0.47 0.27 0.5 0.6 0.01 0.23-0.38 0.42l-0.89 0.33v1.95l0.26 2.63q0 0.4-0.39 0.67-0.37 0.29-0.97 0.32c-0.84 0-1.24-0.18-1.24-0.63v-0.99h-5.95v2.61q-0.01 1.04 1.26 1.31 1.23 0.28 4.93 0.3 3.39 0.01 4.39-0.27 0.81-0.15 1.08-0.66l1.12-3.54h0.76l-0.13 2.86c0 0.35 0.15 0.68 0.54 0.96q0.58 0.52 0.58 1.13c0 0.45-0.19 0.78-0.65 1q-0.55 0.42-2.09 0.66-1.85 0.19-5.46 0.23-4.21 0.01-5.83-0.35-1.38-0.15-2.19-0.97c-0.44-0.5-0.67-1.19-0.67-2.15v-7.44q-0.47 0.42-1.13 0.89c-1.38 1.04-2.96 1.97-4.84 2.8l-0.38-0.6c1.04-0.65 1.93-1.28 2.72-1.94q1.33-1.15 2.36-2.49c0.76-1.04 1.5-2.28 2.26-3.78h-5.37l-2.58 8.3c-0.16 0.47-0.23 0.91-0.26 1.4 0 0.64 0.12 1.39 0.42 2.33q0.57 1.63 0.56 2.25c0 0.7-0.15 1.26-0.53 1.75q-0.48 0.6-1.07 0.64c-0.47 0-0.8-0.17-1.1-0.51q-0.45-0.57-0.49-1.75-0.02-0.29 0.05-1.08 0.13-0.77 0.16-1.28c0-0.76-0.16-1.37-0.48-1.87-0.26-0.46-0.85-0.76-1.86-0.99v-0.85q0.84 0.37 1.23 0.37 0.57 0 1.03-1.04l5.67-12.89 0.77 0.39-1.23 3.97h4.95v-4.97q-1.63 0-3.24 0.23l-0.59-1.59c1.25 0.2 2.53 0.29 3.83 0.35v-2.85q0.02-0.44-0.13-1.85zm1.63 20.13h5.95v-3.85h-5.95zm0.84-9.45h4.63v-4.97h-4.63zm-14.51-2.74q2.22 1 3.47 1.75c0.74 0.52 1.14 0.99 1.14 1.46q0 1.33-1.38 1.38c-0.5 0-0.89-0.27-1.22-0.83q-0.83-1.64-2.62-3.15zm1.87-7.58q2.27 1.06 3.55 1.82 1.16 0.75 1.16 1.52 0.01 1.34-1.38 1.36-0.76 0.02-1.23-0.88c-0.58-1.12-1.46-2.16-2.74-3.21z"/>
					<path id="&lt;Compound Path&gt;" fill-rule="evenodd" class="s1" d="m206.86 80.83l2.3 1.21h11.48l1.31-1.21 1.84 1.5q0.46 0.28 0.49 0.56 0 0.27-0.38 0.4l-0.83 0.35v9.6l0.21 2.55q0 0.37-0.36 0.69-0.38 0.27-0.97 0.31-1.22 0.02-1.22-0.62v-0.97h-4.5v4.74h3.15l1.86-2.05 2.51 1.86q0.37 0.33 0.41 0.68 0.01 0.47-0.62 0.47h-7.31v5.61h4.62l1.97-2.06 2.62 1.88q0.36 0.32 0.4 0.69 0.01 0.46-0.59 0.46h-17.67q-1.68-0.01-3.4 0.25l-0.6-1.58q1.99 0.37 4 0.36h6.23v-5.61h-3.19c-1.11 0-2.23 0.07-3.39 0.26l-0.62-1.6q2.01 0.38 4.01 0.38h3.19v-4.74h-4.4v0.48q0 0.53-0.47 0.8-0.46 0.27-1.11 0.31-0.75 0.01-0.85-0.87l0.13-2.94v-9.98c0-1.12-0.06-1.83-0.25-2.17zm2.55 13.5h4.4v-5.24h-4.4zm6.82 0h4.5v-5.25h-4.5zm-6.82-6.08h4.4v-5.36h-4.4zm6.82 0h4.5v-5.36h-4.5zm-12.18-6.95l2.22 1.71c0.22 0.19 0.31 0.36 0.34 0.63q0 0.47-0.6 0.47h-3.77v7.33h0.22l1.59-1.72 2.12 1.62q0.29 0.28 0.32 0.57 0 0.44-0.48 0.5h-3.77v6.81q2.23-0.46 4.37-1.21l0.13 0.72q-3.7 2.33-8.52 4.52l-0.24 1.05q0 0.38-0.38 0.37c-0.24 0-0.44-0.14-0.56-0.53l-1.25-3.11q2.04-0.42 4-1.12v-7.5c-1.05 0-2.07 0.05-3.16 0.23l-0.62-1.58c1.28 0.22 2.52 0.3 3.78 0.34v-7.29c-1.13 0-2.25 0.05-3.41 0.25l-0.59-1.59c1.34 0.24 2.65 0.37 4 0.37h2.55z"/>
					<path id="&lt;Path&gt;" class="s1" d="m255.26 82.29l2.75 1.96c0.25 0.23 0.37 0.44 0.4 0.72q0.01 0.47-0.59 0.46h-10.72v19.5h8.55l1.93-2.19 2.74 1.96c0.28 0.23 0.4 0.44 0.43 0.71 0 0.33-0.18 0.47-0.63 0.47h-24.08c-1.32 0-2.59 0.13-3.9 0.39l-0.76-1.82c1.57 0.33 3.09 0.48 4.66 0.48h8.38v-19.5h-6.21c-1.27 0-2.55 0.13-3.9 0.4l-0.71-1.85c1.57 0.31 3.09 0.46 4.61 0.5h15.1z"/>
					<path id="&lt;Path&gt;" class="s1" d="m278.12 80.09l3.5 0.51c0.5 0.06 0.75 0.24 0.75 0.6q0.01 0.5-1.35 0.98c0 2.56-0.09 4.75-0.35 6.58h8.51l1.98-2.21 2.71 1.96c0.27 0.25 0.4 0.47 0.42 0.73 0 0.31-0.17 0.46-0.58 0.48h-12.44c1.07 2.63 2.15 4.78 3.31 6.53 1.31 2.05 2.93 3.83 4.9 5.39q2.69 2.23 5.79 3.42l-0.34 0.85q-0.75 0-1.32 0.18c-0.41 0.07-0.92 0.6-1.61 1.66-1.83-1.06-3.43-2.41-4.83-4.09q-2.51-2.79-4.16-6.33-1.44-2.9-2.52-7.19-0.07 0.36-0.21 0.96c-0.37 2.15-0.97 4.09-1.84 5.8q-1.11 2.48-2.79 4.4c-1.23 1.46-2.64 2.73-4.25 3.89q-2.11 1.54-5.34 3.28l-0.63-0.72q3.48-2.25 5.25-3.84c1.69-1.52 3.09-3.18 4.27-4.99q1.85-2.97 2.67-6.51c0.19-0.88 0.35-1.75 0.47-2.69h-8.01c-1.13 0-2.24 0.07-3.43 0.27l-0.59-1.6q2.02 0.37 4.02 0.37h8.14c0.12-1.31 0.19-3.06 0.26-5.23 0-0.81-0.1-1.94-0.36-3.44z"/>
					<path id="&lt;Compound Path&gt;" fill-rule="evenodd" class="s1" d="m321.2 94.83l2.08 2.1c0.32 0.25 0.47 0.46 0.47 0.73q0 0.45-0.55 0.45h-1.04c-1.81 0.81-3.52 1.44-5.17 1.95q0.04 0.07 0.06 0.27c0 0.16-0.18 0.34-0.6 0.59v0.38h7.67l1.83-2.09 2.55 1.87c0.24 0.22 0.37 0.43 0.37 0.69q0.01 0.46-0.6 0.48h-11.82v3.18q0 1.59-1.58 2.57-1.31 0.68-2.43 0.71c0-0.78-0.1-1.33-0.34-1.74q-0.26-0.71-3.06-1.41l0.1-0.87 4.14 0.97c0.4 0 0.59-0.19 0.62-0.6v-2.81h-8.66q-1.69 0-3.4 0.26l-0.6-1.59q2.01 0.38 4 0.38h8.66q0.01-1.12-0.12-2.56l2.08 0.72q1.88-1.08 3.37-2.45h-9.35c-1.12 0-2.25 0.07-3.42 0.27l-0.6-1.6c1.33 0.31 2.68 0.47 4.02 0.52h9.98zm-12.29-14.99l2 1.91c0.19 0.19 0.28 0.35 0.31 0.52q0 0.47-0.38 0.5l-1.21-0.37q-2.22 0.47-4.09 0.68l0.17 2.25h1.75l1.32-1.34 1.79 1.34q0.28 0.22 0.27 0.5 0 0.32-0.49 0.33h-4.59l0.19 2.82h1.84l1.34-1.33 1.81 1.33q0.28 0.23 0.28 0.5 0 0.37-0.5 0.37h-4.71l0.19 2.77h17l0.24-2.65h-0.28c-1.13 0-2.25 0.07-3.43 0.22l-0.6-1.55q2.02 0.47 4.03 0.47h0.38l0.23-2.81h-0.39q-1.69-0.01-3.4 0.24l-0.6-1.59c1.35 0.32 2.65 0.48 4 0.51h0.5l0.24-2.69h-0.74c-1.13 0-2.25 0.06-3.4 0.25l-0.6-1.58c1.35 0.31 2.65 0.47 4 0.5h0.53l-0.03-0.13 1.33-1.35 1.68 1.54q0.47 0.37 0.5 0.64c0 0.24-0.08 0.38-0.31 0.49l-0.77 0.49-0.81 9h0.47l1.42-1.2 2.06 1.55q0.39 0.18 0.38 0.66c0 0.18-0.15 0.34-0.54 0.49l-0.77 0.22q-1.18 1.2-3.17 2.67l-0.72-0.37q0.97-1.71 1.4-3.14h-22.85q-0.05 1.03-0.29 1.87-0.27 1.01-0.84 1.56-0.41 0.46-0.93 0.45c-0.89 0-1.3-0.43-1.34-1.33 0-0.24 0.15-0.56 0.53-0.97 0.38-0.37 0.72-0.83 1.05-1.45 0.38-0.72 0.69-1.59 0.97-2.68l0.72 0.24c0.07 0.5 0.09 0.97 0.13 1.43h0.93l-0.56-9.13q0.01-1.11-0.5-2.64l2.35 1.28q1.74-0.94 3.51-2.29zm7.42 6.58l2.28 0.97c0.25 0.05 0.36 0.21 0.4 0.49 0 0.26-0.4 0.45-1.21 0.64-0.31 0.28-0.53 0.49-0.72 0.67 0.13 0.07 0.25 0.13 0.41 0.26 0.99 0.52 1.48 1.06 1.52 1.62 0 0.35-0.05 0.6-0.25 0.74-0.12 0.23-0.4 0.32-0.83 0.35q-0.57 0.01-1.23-0.87-0.55-0.56-1.06-0.97c-0.42 0.26-0.94 0.52-1.56 0.84-0.78 0.31-1.83 0.62-3.24 1l-0.24-0.64c0.62-0.23 1.08-0.43 1.47-0.61 0.58-0.31 1.11-0.65 1.61-1.1 0.22-0.19 0.4-0.36 0.63-0.55q-1.03-0.8-2.51-1.61l0.51-0.35q1.79 0.55 2.8 1.03 0.57-0.66 1.22-1.91zm0.12-6.2l2.27 0.96q0.37 0.09 0.41 0.5 0 0.38-1.2 0.59c-0.3 0.34-0.54 0.67-0.82 0.95v0.03q1.41 0.83 1.4 1.7 0.01 0.47-0.21 0.69-0.19 0.28-0.76 0.31c-0.33 0-0.68-0.24-1.09-0.75q-0.4-0.47-0.71-0.74-0.46 0.33-1.15 0.74c-0.69 0.38-1.65 0.72-2.91 1.1l-0.21-0.59q0.79-0.37 1.24-0.7c0.54-0.3 1-0.68 1.44-1.14q0.17-0.23 0.41-0.51-1.03-0.93-2.76-2.05l0.51-0.37q2.04 0.83 3.06 1.33c0.34-0.48 0.67-1.19 1.08-2.05z"/>
				</g>
				<g id="&lt;Group&gt;">
					<path id="&lt;Compound Path&gt;" class="s1" d="m150.16 14.11h-1.09c-0.12-2.01 0-3.35-3.21-3.35h-6.11v20.79c0 2.61 1.53 2.65 3.66 2.68v0.97c-1.93 0-3.66-0.08-5.42-0.08-1.93 0-3.82 0.04-5.83 0.08v-0.97c2.13-0.03 3.66-0.07 3.66-2.68v-20.79h-5.27c-3.61 0-3.77 0.93-4.45 3.35h-1.05l0.44-5.92h0.81c0.44 1.01 1.52 1.04 2.53 1.04h18.23c1.45 0 2.46-0.33 2.61-1.04h0.85z"/>
					<path id="&lt;Compound Path&gt;" class="s1" d="m173.22 23.36v-6.76c0-2.17-1.27-2.2-3.04-2.23v-0.81c1.77 0.03 3.34 0.07 4.95 0.07 1.44 0 2.91-0.07 4.42-0.07v0.81c-1.78 0.03-3.05 0.06-3.05 2.23v15.56c0 2.17 1.27 2.2 3.05 2.23v0.81q-2.26-0.05-4.52-0.06c-1.57 0-3.11 0.03-4.85 0.06v-0.81c1.77-0.03 3.04-0.06 3.04-2.23v-7.53h-13.52v7.53c0 2.17 1.27 2.2 3.04 2.23v0.81c-1.6 0-3.04-0.06-4.52-0.06-1.6 0-3.18 0.03-4.85 0.06v-0.81c1.77-0.03 3.05-0.06 3.05-2.23v-15.56c0-2.17-1.28-2.2-3.05-2.23v-0.81q2.36 0.06 4.62 0.07c1.54 0 3.08-0.04 4.75-0.07v0.81c-1.77 0.03-3.04 0.06-3.04 2.23v6.76z"/>
					<path id="&lt;Compound Path&gt;" class="s1" d="m188.55 23.36h4.42c2.71 0 2.71-1.95 2.81-2.67h0.67c-0.07 0.68-0.13 2.36-0.13 3.47 0 0.99 0.17 2.45 0.13 3.44h-0.67c0-2.97-1.07-2.97-3.65-2.97h-3.58v5.27c0 3.44 0.13 4.31 3.45 4.31h2.07c3.29-0.16 4.76-0.56 6.06-3.88l0.81 0.13c-0.54 1.55-1.04 3.13-1.37 4.74-3.35 0-6.7-0.06-10.05-0.06q-3.72-0.02-7.43 0.06v-0.81c2.91 0 3.18-0.49 3.18-3.5v-13.76c0-2.54-0.54-2.67-3.18-2.76v-0.81c2.24 0.07 4.52 0.07 6.76 0.07 3.22 0 6.39 0 9.64-0.07v4.62l-0.67 0.16c-0.5-2.92-2.01-3.78-5.35-3.78h-3.92z"/>
					<path id="&lt;Compound Path&gt;" class="s1" d="m234.64 20.99v-8.11c0-2.6-1.53-2.64-3.66-2.68v-0.97c2.13 0.04 4.02 0.08 5.95 0.08 1.72 0 3.49-0.08 5.3-0.08v0.97c-2.13 0.04-3.66 0.08-3.66 2.68v18.67c0 2.61 1.53 2.65 3.66 2.68v0.97q-2.71-0.07-5.42-0.08c-1.89 0-3.74 0.04-5.83 0.08v-0.97c2.13-0.03 3.66-0.07 3.66-2.68v-9.04h-16.23v9.04c0 2.61 1.53 2.65 3.65 2.68v0.97c-1.92 0-3.65-0.08-5.42-0.08-1.93 0-3.81 0.04-5.82 0.08v-0.97c2.13-0.03 3.65-0.07 3.65-2.68v-18.67c0-2.6-1.52-2.64-3.65-2.68v-0.97q2.83 0.07 5.54 0.08c1.85 0 3.7-0.04 5.7-0.08v0.97c-2.12 0.04-3.65 0.08-3.65 2.68v8.11z"/>
					<path id="&lt;Compound Path&gt;" fill-rule="evenodd" class="s1" d="m256.19 13.1c6.7 0 11.96 5.27 11.96 11.16 0 5.67-4.72 11.4-12.05 11.4-6.7 0-11.96-5.26-11.96-11.16 0-5.67 4.72-11.4 12.05-11.4zm0.31 21.57c4.88 0 7.97-3.9 7.97-9.52 0-4.7-2.95-11.06-8.68-11.06-4.88 0-7.96 3.9-7.96 9.52 0 4.71 2.94 11.06 8.67 11.06z"/>
					<path id="&lt;Compound Path&gt;" class="s1" d="m292.25 35.48h-0.77l-17.51-17.79v11.56c0 4.28 0.37 5.14 3.98 5.14v0.81c-1.47 0-2.98-0.06-4.45-0.06-1.47 0-2.98 0.03-4.45 0.06v-0.81c2.04 0 3.58 0 3.58-3.93v-12.47c0-2.66-1.24-3.62-4.12-3.62v-0.81c1.04 0.03 2.04 0.07 3.08 0.07 0.91 0 1.84-0.07 2.75-0.07 1.37 1.89 4.48 4.71 8.3 8.62 2.84 2.91 5.99 5.98 8.27 8.28v-12.34c0-2.85-0.7-3.72-4.05-3.75v-0.81c1.54 0.03 3.11 0.07 4.65 0.07 1.31 0 2.58-0.07 3.88-0.07v0.81c-2.04 0-3.14 0.15-3.14 3.19z"/>
					<path id="&lt;Compound Path&gt;" class="s1" d="m318.05 19.11h-0.73c-0.87-3.59-4.12-5.02-7.87-5.02-5.92 0-9.34 4.81-9.34 9.86 0 5.36 3.55 10.72 9.58 10.72 2.64 0 4.01-0.87 4.52-1.21v-4.61c0-2.27-1.28-2.27-3.05-2.27v-0.8q2.36 0.05 4.62 0.06c1.54 0 3.08-0.03 4.08-0.06v0.8c-1.1 0-2.37 0-2.37 2.27v4.05l0.5 0.47v0.53c-2.71 0.9-5.79 1.76-8.71 1.76-9.41 0-12.85-6.81-12.85-11.25 0-6.51 5.45-11.31 12.45-11.31 2.98 0 5.83 0.71 8.61 1.67z"/>
					<path id="&lt;Compound Path&gt;" class="s1" d="m328.87 34.23c2.13-0.03 3.66-0.07 3.66-2.68v-18.67c0-2.6-1.53-2.64-3.66-2.68v-0.97q2.83 0.07 5.54 0.08c1.85 0 3.7-0.04 5.11-0.08v0.97c-1.53 0.04-3.06 0.08-3.06 2.68v18.67c0 2.61 1.53 2.65 3.22 2.68v0.97c-1.49 0-3.22-0.08-4.98-0.08-1.93 0-3.82 0.04-5.83 0.08zm17.19-21.13c0.45-0.41 1.49-1.38 1.49-2.05 0-0.85-1.17-0.85-2.25-0.85v-0.97c1.73 0.04 3.49 0.07 5.18 0.07 1.33 0 2.57-0.03 3.86-0.07v0.97c-2.25 0-3.58 0.33-7.19 3.83l-6.87 6.65c4.06 4.14 7.99 8.34 12.17 12.35 1.33 1.2 2.61 1.2 3.45 1.2v0.96c-1.28-0.03-2.61-0.07-3.89-0.07q-1.45 0.01-2.89 0.07c-3.98-4.46-8.32-8.59-12.5-12.9z"/>
					<path id="&lt;Compound Path&gt;" fill-rule="evenodd" class="s1" d="m367.54 13.1c6.7 0 11.95 5.27 11.95 11.16 0 5.67-4.72 11.4-12.05 11.4-6.7 0-11.95-5.26-11.95-11.16 0-5.67 4.72-11.4 12.05-11.4zm0.3 21.57c4.89 0 7.97-3.9 7.97-9.52 0-4.7-2.95-11.06-8.67-11.06-4.89 0-7.97 3.9-7.97 9.52 0 4.71 2.95 11.06 8.67 11.06z"/>
					<path id="&lt;Compound Path&gt;" class="s1" d="m403.76 35.48h-0.77l-17.51-17.79v11.56c0 4.28 0.37 5.14 3.98 5.14v0.81c-1.47 0-2.98-0.06-4.45-0.06-1.47 0-2.98 0.03-4.45 0.06v-0.81c2.04 0 3.58 0 3.58-3.93v-12.47c0-2.66-1.24-3.62-4.12-3.62v-0.81c1.04 0.03 2.04 0.07 3.08 0.07 0.91 0 1.84-0.07 2.75-0.07 1.37 1.89 4.49 4.71 8.3 8.62 2.85 2.91 6 5.98 8.27 8.28v-12.34c0-2.85-0.7-3.72-4.05-3.75v-0.81c1.54 0.03 3.11 0.07 4.65 0.07 1.31 0 2.58-0.07 3.89-0.07v0.81c-2.04 0-3.15 0.15-3.15 3.19z"/>
					<path id="&lt;Compound Path&gt;" class="s1" d="m429.57 19.11h-0.74c-0.87-3.59-4.12-5.02-7.87-5.02-5.92 0-9.34 4.81-9.34 9.86 0 5.36 3.55 10.72 9.58 10.72 2.64 0 4.01-0.87 4.52-1.21v-4.61c0-2.27-1.27-2.27-3.05-2.27v-0.8q2.36 0.05 4.62 0.06c1.54 0 3.08-0.03 4.09-0.06v0.8c-1.11 0-2.38 0-2.38 2.27v4.05l0.5 0.47v0.53c-2.71 0.9-5.79 1.76-8.7 1.76-9.41 0-12.86-6.81-12.86-11.25 0-6.51 5.46-11.31 12.45-11.31 2.99 0 5.83 0.71 8.61 1.67z"/>
				</g>
				<g id="&lt;Group&gt;">
					<path id="&lt;Compound Path&gt;" class="s1" d="m125.57 44.49c1.81 0.08 3.62 0.08 5.43 0.08 1.36 0 2.77-0.08 4.46-0.08 4.13 0 10.08 1.6 10.08 7.41 0 4.39-4.42 7.43-8.64 7.43-0.8 0-1.44-0.03-2.05-0.03v-1.23c0.52 0.08 1.01 0.08 1.53 0.08 3.45 0 4.98-3.17 4.98-5.84 0-5.17-3.9-6.63-6.55-6.63-0.6 0-1.32 0.04-1.77 0.12v21.01c0 2.61 1.53 2.64 3.7 2.68v0.97c-1.97 0-3.7-0.08-5.46-0.08-1.93 0-3.82 0.04-5.83 0.08v-0.97c2.13-0.04 3.66-0.07 3.66-2.68v-17.7c0-2.87-0.52-3.65-3.54-3.65z"/>
					<path id="&lt;Compound Path&gt;" fill-rule="evenodd" class="s1" d="m159.73 48.36c6.69 0 11.95 5.27 11.95 11.16 0 5.67-4.72 11.4-12.05 11.4-6.7 0-11.95-5.27-11.95-11.16 0-5.67 4.72-11.4 12.05-11.4zm0.3 21.57c4.89 0 7.97-3.9 7.97-9.51 0-4.72-2.95-11.07-8.67-11.07-4.89 0-7.97 3.9-7.97 9.52 0 4.71 2.94 11.06 8.67 11.06z"/>
					<path id="&lt;Compound Path&gt;" class="s1" d="m191.12 70.46c-2.85-0.06-5.66-0.06-8.5-0.06-2.98 0-5.93 0-8.87 0.06v-0.81c1.67 0.1 3.04-0.31 3.04-2.07v-15.72c0-2.17-1.27-2.2-3.04-2.23v-0.81q2.36 0.06 4.62 0.07c1.54 0 3.08-0.04 4.75-0.07v0.81c-1.77 0.03-3.05 0.06-3.05 2.23v14.35c0 2.29 0.54 3.26 5.29 3.26 3.89 0 5.23-0.87 6.26-3.88l0.74 0.13z"/>
					<path id="&lt;Compound Path&gt;" class="s1" d="m204.08 67.42c0 2.17 1.27 2.2 3.05 2.23v0.81c-1.68-0.03-3.22-0.06-4.76-0.06q-2.26 0-4.62 0.06v-0.81c1.78-0.03 3.05-0.06 3.05-2.23v-7.5l-7-8.93c-0.97-1.27-1.14-1.21-3.11-1.36v-0.81c0.63 0.03 3.11 0.07 4.65 0.07 1.38 0 2.71-0.07 4.09-0.07v0.81c-0.54 0-1.88 0-1.88 0.65 0 0.37 0.47 1.08 1.11 1.92l4.68 6.11 4.39-5.55c0.4-0.53 1.3-1.52 1.3-2.23 0-0.9-0.67-0.9-2.37-0.9v-0.81c1.27 0.03 2.58 0.07 3.85 0.07 0.9 0 1.8-0.07 2.74-0.07v0.81c-1.4 0.03-2.04 0.87-2.78 1.8l-6.39 7.99z"/>
					<path id="&lt;Compound Path&gt;" class="s1" d="m236.61 52.88h-0.9c-0.1-1.67 0-2.79-2.68-2.79h-5.09v17.33c0 2.17 1.28 2.2 3.05 2.23v0.81c-1.61 0-3.05-0.06-4.52-0.06-1.61 0-3.18 0.03-4.85 0.06v-0.81c1.77-0.03 3.04-0.06 3.04-2.23v-17.33h-4.38c-3.02 0-3.15 0.78-3.72 2.79h-0.87l0.37-4.92h0.67c0.37 0.83 1.27 0.86 2.11 0.86h15.2c1.2 0 2.04-0.28 2.17-0.86h0.71z"/>
					<path id="&lt;Compound Path&gt;" class="s1" d="m246.09 58.62h4.41c2.72 0 2.72-1.96 2.82-2.67h0.67c-0.07 0.69-0.14 2.36-0.14 3.47 0 1 0.17 2.45 0.14 3.44h-0.67c0-2.97-1.08-2.97-3.65-2.97h-3.58v5.27c0 3.44 0.13 4.31 3.44 4.31h2.08c3.28-0.16 4.75-0.56 6.06-3.88l0.8 0.13c-0.53 1.54-1.03 3.13-1.37 4.74-3.35 0-6.7-0.06-10.04-0.06-2.48 0-4.96 0-7.44 0.06v-0.81c2.92 0 3.18-0.49 3.18-3.5v-13.76c0-2.54-0.53-2.67-3.18-2.76v-0.81c2.25 0.07 4.52 0.07 6.77 0.07 3.21 0 6.39 0 9.64-0.07v4.62l-0.67 0.16c-0.5-2.92-2.01-3.78-5.36-3.78h-3.91z"/>
					<path id="&lt;Compound Path&gt;" class="s1" d="m281.47 54.43h-0.84c-0.64-3.62-3.42-5.08-7.16-5.08-3.85 0-9.45 2.38-9.45 9.83 0 6.26 4.83 10.75 9.98 10.75 3.32 0 6.06-2.11 6.73-5.36l0.77 0.18-0.77 4.53c-1.41 0.81-5.19 1.64-7.4 1.64-7.83 0-12.79-4.68-12.79-11.65 0-6.36 6.13-10.91 12.69-10.91 2.71 0 5.32 0.8 7.9 1.64z"/>
					<path id="&lt;Compound Path&gt;" class="s1" d="m304.09 58.62v-6.76c0-2.17-1.27-2.2-3.04-2.23v-0.81c1.77 0.03 3.35 0.07 4.95 0.07 1.44 0 2.91-0.07 4.42-0.07v0.81c-1.77 0.03-3.04 0.06-3.04 2.23v15.56c0 2.17 1.27 2.2 3.04 2.23v0.81q-2.26-0.06-4.52-0.06c-1.57 0-3.11 0.03-4.85 0.06v-0.81c1.77-0.03 3.04-0.06 3.04-2.23v-7.53h-13.52v7.53c0 2.17 1.27 2.2 3.04 2.23v0.81c-1.6 0-3.04-0.06-4.51-0.06-1.61 0-3.19 0.03-4.86 0.06v-0.81c1.77-0.03 3.05-0.06 3.05-2.23v-15.56c0-2.17-1.28-2.2-3.05-2.23v-0.81q2.36 0.06 4.62 0.07c1.54 0 3.08-0.04 4.75-0.07v0.81c-1.77 0.03-3.04 0.06-3.04 2.23v6.76z"/>
					<path id="&lt;Compound Path&gt;" class="s1" d="m336.63 70.74h-0.77l-17.51-17.79v11.56c0 4.27 0.37 5.14 3.98 5.14v0.81c-1.47 0-2.97-0.06-4.45-0.06-1.47 0-2.98 0.03-4.45 0.06v-0.81c2.04 0 3.58 0 3.58-3.93v-12.47c0-2.66-1.24-3.62-4.12-3.62v-0.81c1.04 0.03 2.05 0.07 3.08 0.07 0.91 0 1.84-0.07 2.75-0.07 1.37 1.89 4.49 4.71 8.3 8.62 2.85 2.91 5.99 5.98 8.27 8.28v-12.34c0-2.85-0.7-3.72-4.05-3.75v-0.81c1.54 0.03 3.11 0.07 4.65 0.07 1.31 0 2.58-0.07 3.89-0.07v0.81c-2.05 0-3.15 0.15-3.15 3.19z"/>
					<path id="&lt;Compound Path&gt;" class="s1" d="m345.3 51.86c0-2.17-1.28-2.2-3.05-2.23v-0.81q2.36 0.06 4.62 0.07c1.54 0 3.08-0.04 4.75-0.07v0.81c-1.77 0.03-3.04 0.06-3.04 2.23v15.56c0 2.17 1.27 2.2 3.04 2.23v0.81c-1.6 0-3.04-0.06-4.52-0.06-1.6 0-3.18 0.03-4.85 0.06v-0.81c1.77-0.03 3.05-0.06 3.05-2.23z"/>
					<path id="&lt;Compound Path&gt;" class="s1" d="m374.45 54.43h-0.83c-0.64-3.62-3.42-5.08-7.17-5.08-3.85 0-9.44 2.38-9.44 9.83 0 6.26 4.82 10.75 9.97 10.75 3.32 0 6.06-2.11 6.74-5.36l0.76 0.18-0.76 4.53c-1.41 0.81-5.19 1.64-7.4 1.64-7.84 0-12.79-4.68-12.79-11.65 0-6.36 6.12-10.91 12.68-10.91 2.72 0 5.33 0.8 7.91 1.64z"/>
					<path id="&lt;Compound Path&gt;" class="s1" d="m411.74 45.46c-3.21 0-3.17 1.45-3.17 5.99v10.71c0 5.06-3.42 8.86-10.49 8.86-6.63 0-10.6-2.98-10.72-9.3v-13.58c0-2.6-1.53-2.64-3.66-2.68v-0.97q2.83 0.07 5.55 0.08c1.84 0 3.69-0.04 5.7-0.08v0.97c-2.13 0.04-3.66 0.08-3.66 2.68v12.65c0 4.42 1.57 8.7 7.84 8.7 6.66 0 7.31-4.76 7.31-7.33v-10.6c0-6.1-0.24-5.99-3.82-6.1v-0.97q2.53 0.07 5.06 0.08c1.37 0 2.69-0.08 4.06-0.08z"/>
					<path id="&lt;Compound Path&gt;" class="s1" d="m437.4 70.74h-0.77l-17.51-17.79v11.56c0 4.27 0.36 5.14 3.98 5.14v0.81c-1.47 0-2.98-0.06-4.45-0.06-1.48 0-2.98 0.03-4.45 0.06v-0.81c2.04 0 3.58 0 3.58-3.93v-12.47c0-2.66-1.24-3.62-4.12-3.62v-0.81c1.04 0.03 2.04 0.07 3.08 0.07 0.9 0 1.84-0.07 2.74-0.07 1.38 1.89 4.49 4.71 8.31 8.62 2.84 2.91 5.99 5.98 8.27 8.28v-12.34c0-2.85-0.71-3.72-4.05-3.75v-0.81c1.54 0.03 3.11 0.07 4.65 0.07 1.3 0 2.58-0.07 3.88-0.07v0.81c-2.04 0-3.14 0.15-3.14 3.19z"/>
					<path id="&lt;Compound Path&gt;" class="s1" d="m446.23 51.86c0-2.17-1.27-2.2-3.05-2.23v-0.81q2.36 0.06 4.62 0.07c1.54 0 3.08-0.04 4.76-0.07v0.81c-1.78 0.03-3.05 0.06-3.05 2.23v15.56c0 2.17 1.27 2.2 3.05 2.23v0.81c-1.61 0-3.05-0.06-4.52-0.06-1.61 0-3.18 0.03-4.86 0.06v-0.81c1.78-0.03 3.05-0.06 3.05-2.23z"/>
					<path id="&lt;Compound Path&gt;" class="s1" d="m460.99 58.09c-0.84-1.98-1.81-4-2.58-6.01-0.77-1.86-1.3-2.45-3.51-2.45v-0.81q2.36 0.06 4.72 0.07c1.4 0 2.84-0.07 4.25-0.07v0.81c-0.5 0.03-0.97 0.03-1.44 0.09-0.47 0.03-0.87 0.28-0.87 0.75 0 1.02 1.77 4.77 2.14 5.67l4.45 10.6 2.55-6.14c0.8-2.01 1.74-4 2.44-6.01 0.34-0.99 1.04-2.51 1.04-3.54 0-1.45-1.34-1.36-2.54-1.42v-0.81c1.3 0.03 2.64 0.07 3.95 0.07q1.55-0.01 3.11-0.07v0.81c-1.14 0-1.77 0.46-2.24 1.21-0.21 0.34-2.48 5.7-2.55 5.86l-6.12 14.22h-1.25z"/>
					<path id="&lt;Compound Path&gt;" class="s1" d="m487.03 58.62h4.42c2.71 0 2.71-1.96 2.81-2.67h0.67c-0.06 0.69-0.13 2.36-0.13 3.47 0 1 0.16 2.45 0.13 3.44h-0.67c0-2.97-1.07-2.97-3.65-2.97h-3.58v5.27c0 3.44 0.13 4.31 3.45 4.31h2.07c3.29-0.16 4.76-0.56 6.06-3.88l0.81 0.13c-0.54 1.54-1.04 3.13-1.38 4.74-3.34 0-6.69-0.06-10.04-0.06-2.48 0-4.96 0-7.43 0.06v-0.81c2.91 0 3.18-0.49 3.18-3.5v-13.76c0-2.54-0.54-2.67-3.18-2.76v-0.81c2.24 0.07 4.52 0.07 6.76 0.07 3.21 0 6.4 0 9.64-0.07v4.62l-0.67 0.16c-0.5-2.92-2.01-3.78-5.35-3.78h-3.92z"/>
					<path id="&lt;Compound Path&gt;" class="s1" d="m523.89 65.34h0.77c0.57 2.33 2.44 4.59 5.22 4.59 2.58 0 4.59-1.67 4.59-4.12 0-5.77-9.91-4.06-9.91-11.38 0-4 3.08-6.07 7.16-6.07 1.38 0 2.75 0.28 4.09 0.46l0.53 3.97h-0.77c-0.36-2.17-1.9-3.44-4.31-3.44-2.55 0-4.02 1.7-4.02 3.97 0 5.76 10.31 4.18 10.31 11.31 0 4.03-3.92 6.29-7.87 6.29-1.74 0-3.55-0.37-5.12-1.05z"/>
					<path id="&lt;Compound Path&gt;" class="s1" d="m542.94 51.86c0-2.17-1.28-2.2-3.05-2.23v-0.81q2.36 0.06 4.62 0.07c1.54 0 3.08-0.04 4.75-0.07v0.81c-1.77 0.03-3.04 0.06-3.04 2.23v15.56c0 2.17 1.27 2.2 3.04 2.23v0.81c-1.6 0-3.04-0.06-4.52-0.06-1.6 0-3.18 0.03-4.85 0.06v-0.81c1.77-0.03 3.05-0.06 3.05-2.23z"/>
					<path id="&lt;Compound Path&gt;" class="s1" d="m572.53 52.88h-0.91c-0.1-1.67 0-2.79-2.67-2.79h-5.1v17.33c0 2.17 1.28 2.2 3.05 2.23v0.81c-1.61 0-3.05-0.06-4.52-0.06-1.6 0-3.18 0.03-4.85 0.06v-0.81c1.77-0.03 3.05-0.06 3.05-2.23v-17.33h-4.39c-3.01 0-3.15 0.78-3.72 2.79h-0.87l0.37-4.92h0.67c0.37 0.83 1.27 0.86 2.11 0.86h15.2c1.2 0 2.04-0.28 2.18-0.86h0.7z"/>
					<path id="&lt;Compound Path&gt;" class="s1" d="m587.5 67.42c0 2.17 1.27 2.2 3.04 2.23v0.81c-1.67-0.03-3.21-0.06-4.75-0.06q-2.26 0-4.62 0.06v-0.81c1.78-0.03 3.05-0.06 3.05-2.23v-7.5l-7-8.93c-0.97-1.27-1.14-1.21-3.11-1.36v-0.81c0.64 0.03 3.11 0.07 4.65 0.07 1.37 0 2.71-0.07 4.09-0.07v0.81c-0.54 0-1.88 0-1.88 0.65 0 0.37 0.47 1.08 1.1 1.92l4.69 6.11 4.39-5.55c0.4-0.53 1.31-1.52 1.31-2.23 0-0.9-0.67-0.9-2.38-0.9v-0.81c1.27 0.03 2.58 0.07 3.85 0.07 0.9 0 1.81-0.07 2.74-0.07v0.81c-1.4 0.03-2.04 0.87-2.77 1.8l-6.4 7.99z"/>
					<path id="&lt;Compound Path&gt;" fill-rule="evenodd" class="s1" d="m508.08 60.23v7.19c0 2.17 1.28 2.2 3.05 2.23v0.81c-1.61 0-3.05-0.06-4.52-0.06-1.61 0-3.18 0.03-4.85 0.06v-0.81c1.67 0.1 3.04-0.31 3.04-2.07v-15.72c0-2.17-1.27-2.2-3.04-2.23v-0.81c1.84 0.03 3.45 0.07 5.09 0.07 1.17 0 2.34-0.07 4.48-0.07 6.33 0 7.73 3.29 7.73 5.49 0 2.63-2.02 4.51-4.75 5.3 3.69 5.4 3.97 6.53 5.3 8.09 1 1.18 1.81 1.95 3.52 1.95v0.81c-0.84 0-1.68-0.06-2.51-0.06-0.94 0-1.91 0.03-2.85 0.06-2.49-3.38-6.64-10.23-6.64-10.23zm2.01-10.41c-0.84 0-1.41 0.09-2.01 0.18v9.08c0.5 0.1 1.21 0.16 1.77 0.16 4.12 0 5.73-2.51 5.73-4.75 0-2.69-1.54-4.67-5.49-4.67z"/>
				</g>
			</g>
		</g>
	</g>
</svg>